<svg width="188" height="202" viewBox="0 0 188 202" fill="none" xmlns="http://www.w3.org/2000/svg">
<path d="M162.654 51.6758H31.9556V51.7658C31.3671 51.7334 30.7821 51.6758 30.1829 51.6758C13.5407 51.6758 0.046875 65.3833 0.046875 82.289V159.722H60.3189H102.864H145.409H187.954V77.3764C187.954 63.1827 176.626 51.6758 162.654 51.6758Z" fill="#3DBAEC"/>
<rect x="79.9082" y="159.723" width="28.186" height="42.2791" fill="#F58B69"/>
<rect x="98.6992" y="164.418" width="14.093" height="9.39535" fill="#666673"/>
<rect x="98.6992" y="178.508" width="14.093" height="9.39535" fill="#6C4127"/>
<rect x="98.6992" y="183.211" width="14.093" height="9.39535" fill="#666673"/>
<path d="M61.1166 159.722H0.046875V82.289C0.046875 65.3833 13.7193 51.6758 30.5818 51.6758C47.4442 51.6758 61.1166 65.3833 61.1166 82.289V159.722Z" fill="#77CFF2"/>
<path d="M98.7004 108.045C90.9176 108.045 84.6074 101.735 84.6074 93.9524C84.6074 86.1695 90.9176 79.8594 98.7004 79.8594C106.483 79.8594 112.793 86.1695 112.793 93.9524C112.793 101.735 106.483 108.045 98.7004 108.045Z" fill="#454555"/>
<path d="M145.674 28.186H103.395V0H145.674L135.104 14.093L145.674 28.186Z" fill="#F15A29"/>
<rect x="98.6992" width="9.39535" height="93.9535" fill="#454555"/>
</svg>
