<svg width="231" height="202" viewBox="0 0 231 202" fill="none" xmlns="http://www.w3.org/2000/svg">
<path d="M0.5 198.243C0.5 200.31 2.16935 202.001 4.20968 202.001H226.79C228.831 202.001 230.5 200.31 230.5 198.243V14.0938H0.5V198.243Z" fill="#EEEEEF"/>
<path d="M230.5 7.04651V14.093H0.5V7.04651C0.5 3.13922 3.80161 0 7.91936 0H223.081C227.198 0 230.5 3.13922 230.5 7.04651Z" fill="#888892"/>
<path d="M11.214 3.90625H11.1775C9.16222 3.90625 7.54492 5.65613 7.54492 7.82098C7.54492 9.98191 9.19873 11.7357 11.214 11.7357C13.2329 11.7357 14.8648 9.98191 14.8648 7.82098C14.8648 5.65613 13.2329 3.90625 11.214 3.90625Z" fill="#E6E9ED"/>
<path d="M22.1632 3.90625H22.1267C20.1078 3.90625 18.4941 5.65613 18.4941 7.82098C18.4941 9.98191 20.1443 11.7357 22.1632 11.7357C24.1821 11.7357 25.814 9.98191 25.814 7.82098C25.814 5.65613 24.1821 3.90625 22.1632 3.90625V3.90625Z" fill="#E6E9ED"/>
<path d="M33.1261 3.90625H33.0896C31.0743 3.90625 29.457 5.65613 29.457 7.82098C29.457 9.98191 31.1108 11.7357 33.1261 11.7357C35.145 11.7357 36.7769 9.98191 36.7769 7.82098C36.7769 5.65613 35.145 3.90625 33.1261 3.90625Z" fill="#E6E9ED"/>
<path d="M115.5 25.8359C144.008 25.8359 167.132 49.5084 167.132 78.6848C167.132 107.903 144.008 131.534 115.5 131.534C86.9912 131.534 63.8672 107.903 63.8672 78.6848C63.8672 49.5122 86.9912 25.8359 115.5 25.8359Z" fill="#3DBAEC"/>
<path d="M114.144 25.8359C112.221 25.8359 110.329 25.953 108.459 26.153C135.044 28.9842 155.766 51.4261 155.766 78.6848C155.766 105.985 135.044 128.393 108.459 131.224C110.329 131.424 112.221 131.534 114.144 131.534C143.401 131.534 167.132 107.903 167.132 78.6848C167.132 49.5122 143.401 25.8359 114.144 25.8359Z" fill="#77CFF2"/>
<path d="M146.07 171.465H82.5843C77.4387 171.465 73.2559 175.678 73.2559 180.86C73.2559 186.043 77.4387 190.256 82.5843 190.256H146.07C151.216 190.256 155.399 186.043 155.399 180.86C155.399 175.678 151.216 171.465 146.07 171.465Z" fill="#545C66"/>
<path d="M200.969 150.324H30.0313C27.977 150.324 26.3164 148.749 26.3164 146.801C26.3164 144.852 27.977 143.277 30.0313 143.277H200.969C203.023 143.277 204.684 144.852 204.684 146.801C204.684 148.749 203.023 150.324 200.969 150.324Z" fill="#CCCCD0"/>
<path d="M165.804 159.722H62.8495C60.8168 159.722 59.1738 158.147 59.1738 156.199C59.1738 154.251 60.8168 152.676 62.8495 152.676H165.804C167.837 152.676 169.48 154.251 169.48 156.199C169.48 158.147 167.837 159.722 165.804 159.722Z" fill="#CCCCD0"/>
<path d="M107.283 101C106.382 101 105.48 100.616 104.793 99.8526L90.7164 84.1982C89.3393 82.6668 89.3393 80.1916 90.7164 78.6602C92.0934 77.1289 94.3193 77.1289 95.6963 78.6602L109.773 94.3146C111.15 95.8459 111.15 98.3212 109.773 99.8526C109.086 100.616 108.185 101 107.283 101Z" fill="#FBB040"/>
<path d="M107.394 101.002C106.465 101.002 105.537 100.625 104.829 99.8755C103.411 98.3726 103.411 95.9433 104.829 94.4403L137.471 59.8499C138.889 58.3469 141.182 58.3469 142.6 59.8499C144.018 61.3528 144.018 63.7821 142.6 65.285L109.958 99.8755C109.251 100.625 108.322 101.002 107.394 101.002V101.002Z" fill="#FBB040"/>
<path d="M73.2559 176.164H155.399V180.862H73.2559L73.2559 176.164Z" fill="#545C66"/>
<path d="M146.07 169.117H82.5843C77.4387 169.117 73.2559 173.33 73.2559 178.513C73.2559 183.695 77.4387 187.908 82.5843 187.908H146.07C151.216 187.908 155.399 183.695 155.399 178.513C155.399 173.33 151.216 169.117 146.07 169.117Z" fill="#666673"/>
</svg>
